<svg xmlns="http://www.w3.org/2000/svg" viewBox="0 0 24.61 24.61"><defs><style>.cls-1{fill:#b7b9bb;fill-rule:evenodd;}</style></defs><title>search</title><g id="Layer_2" data-name="Layer 2"><g id="HOMES"><path class="cls-1" d="M15.83,14.86c.13.1.27.18.38.28l7.93,7.93a2.72,2.72,0,0,1,.29.3.75.75,0,0,1-1.07,1.05,2.72,2.72,0,0,1-.3-.29q-4-3.94-7.9-7.9a2.71,2.71,0,0,1-.28-.41,9.07,9.07,0,0,1-13-1.28A9,9,0,0,1,14.78,2.11,9.08,9.08,0,0,1,15.83,14.86ZM16.45,9A7.47,7.47,0,1,0,9,16.46,7.49,7.49,0,0,0,16.45,9Z"/></g></g></svg>